<?xml version="1.0" encoding="UTF-8" standalone="no"?>
<svg
   viewBox="0 0 448 384"
   version="1.1"
   id="svg4"
   sodipodi:docname="bar-icon.svg"
   inkscape:version="1.2.1 (9c6d41e410, 2022-07-14)"
   width="448"
   height="384"
   xmlns:inkscape="http://www.inkscape.org/namespaces/inkscape"
   xmlns:sodipodi="http://sodipodi.sourceforge.net/DTD/sodipodi-0.dtd"
   xmlns="http://www.w3.org/2000/svg"
   xmlns:svg="http://www.w3.org/2000/svg">
  <defs
     id="defs8" />
  <sodipodi:namedview
     id="namedview6"
     pagecolor="#ffffff"
     bordercolor="#000000"
     borderopacity="0.25"
     inkscape:showpageshadow="2"
     inkscape:pageopacity="0.0"
     inkscape:pagecheckerboard="0"
     inkscape:deskcolor="#d1d1d1"
     showgrid="false"
     inkscape:zoom="1.671875"
     inkscape:cx="223.70093"
     inkscape:cy="192"
     inkscape:window-width="1908"
     inkscape:window-height="1035"
     inkscape:window-x="6"
     inkscape:window-y="39"
     inkscape:window-maximized="1"
     inkscape:current-layer="svg4" />
  <!--! Font Awesome Pro 6.1.1 by @fontawesome - https://fontawesome.com License - https://fontawesome.com/license (Commercial License) Copyright 2022 Fonticons, Inc. -->
  <path
     d="M 0,32 C 0,14.33 14.33,0 32,0 h 384 c 17.7,0 32,14.33 32,32 0,17.7 -14.3,32 -32,32 H 32 C 14.33,64 0,49.7 0,32 Z m 0,160 c 0,-17.7 14.33,-32 32,-32 h 384 c 17.7,0 32,14.3 32,32 0,17.7 -14.3,32 -32,32 H 32 C 14.33,224 0,209.7 0,192 Z M 416,384 H 32 C 14.33,384 0,369.7 0,352 0,334.3 14.33,320 32,320 h 384 c 17.7,0 32,14.3 32,32 0,17.7 -14.3,32 -32,32 z"
     id="path2"
     style="fill:#ffffff;fill-opacity:0.9" />
</svg>
