<?xml version="1.0" encoding="UTF-8" standalone="no"?>
<svg
   width="24px"
   height="24px"
   viewBox="0 0 24 24"
   version="1.1"
   id="svg10"
   sodipodi:docname="moon.svg"
   inkscape:version="1.2.1 (9c6d41e410, 2022-07-14)"
   xmlns:inkscape="http://www.inkscape.org/namespaces/inkscape"
   xmlns:sodipodi="http://sodipodi.sourceforge.net/DTD/sodipodi-0.dtd"
   xmlns="http://www.w3.org/2000/svg"
   xmlns:svg="http://www.w3.org/2000/svg">
  <defs
     id="defs14" />
  <sodipodi:namedview
     id="namedview12"
     pagecolor="#ffffff"
     bordercolor="#111111"
     borderopacity="1"
     inkscape:showpageshadow="0"
     inkscape:pageopacity="0"
     inkscape:pagecheckerboard="1"
     inkscape:deskcolor="#d1d1d1"
     showgrid="false"
     inkscape:zoom="36.291667"
     inkscape:cx="10.208955"
     inkscape:cy="16.146957"
     inkscape:window-width="1908"
     inkscape:window-height="1035"
     inkscape:window-x="6"
     inkscape:window-y="39"
     inkscape:window-maximized="1"
     inkscape:current-layer="svg10" />
  <g
     data-name="Layer 2"
     id="g8"
     style="fill:#3467b1;fill-opacity:1">
    <g
       data-name="moon"
       id="g6"
       style="fill:#3467b1;fill-opacity:1">
      <rect
         width="24"
         height="24"
         opacity="0"
         id="rect2"
         style="fill:#3467b1;fill-opacity:1" />
      <path
         d="M12.3 22h-.1a10.31 10.31 0 0 1-7.34-3.15 10.46 10.46 0 0 1-.26-14 10.13 10.13 0 0 1 4-2.74 1 1 0 0 1 1.06.22 1 1 0 0 1 .24 1 8.4 8.4 0 0 0 1.94 8.81 8.47 8.47 0 0 0 8.83 1.94 1 1 0 0 1 1.27 1.29A10.16 10.16 0 0 1 19.6 19a10.28 10.28 0 0 1-7.3 3z"
         id="path4"
         style="fill:#3467b1;fill-opacity:1" />
    </g>
  </g>
</svg>
