<?xml version="1.0" encoding="UTF-8" standalone="no"?>
<svg
   viewBox="0 0 255.99982 268.26498"
   version="1.1"
   id="svg513"
   sodipodi:docname="selenium-icon.svg"
   width="255.99982"
   height="268.26498"
   inkscape:version="1.2.1 (9c6d41e410, 2022-07-14)"
   xmlns:inkscape="http://www.inkscape.org/namespaces/inkscape"
   xmlns:sodipodi="http://sodipodi.sourceforge.net/DTD/sodipodi-0.dtd"
   xmlns="http://www.w3.org/2000/svg"
   xmlns:svg="http://www.w3.org/2000/svg">
  <defs
     id="defs517" />
  <sodipodi:namedview
     id="namedview515"
     pagecolor="#ffffff"
     bordercolor="#000000"
     borderopacity="0.25"
     inkscape:showpageshadow="2"
     inkscape:pageopacity="0.0"
     inkscape:pagecheckerboard="0"
     inkscape:deskcolor="#d1d1d1"
     showgrid="false"
     inkscape:zoom="3.1908985"
     inkscape:cx="128.17706"
     inkscape:cy="134.1315"
     inkscape:window-width="1908"
     inkscape:window-height="1035"
     inkscape:window-x="6"
     inkscape:window-y="39"
     inkscape:window-maximized="1"
     inkscape:current-layer="svg513" />
  <path
     fill="#2cb134"
     d="m 234.15344,0.00353736 a 1.72,1.72 0 0 1 1.533,2.68300004 l -66.298,90.0569996 a 2.56,2.56 0 0 1 -3.832,0 l -23.377,-26.059 a 2.713,2.713 0 0 0 -4.215,0.384 l -14.18,18.011 a 3,3 0 0 0 0.384,3.066 l 42.154,43.687003 a 2.56,2.56 0 0 0 3.833,0 l 82.775,-93.122003 a 1.77,1.77 0 0 1 3.066,1.15 V 266.34554 a 1.809,1.809 0 0 1 -1.917,1.916 H 1.9204355 a 1.809,1.809 0 0 1 -1.91699999,-1.916 V 1.9205374 A 1.809,1.809 0 0 1 1.9204355,0.00353736 Z M 169.00544,152.91054 a 41.817,41.817 0 0 0 -42.538,42.92 c 0,26.443 19.161,43.305 44.07,43.305 a 52.758,52.758 0 0 0 32.192,-9.964 2.372,2.372 0 0 0 0.383,-3.066 l -6.898,-10.347 a 2.318,2.318 0 0 0 -3.066,-0.383 37.449,37.449 0 0 1 -20.31,6.515 c -13.414,0 -21.845,-8.431 -23.377,-18.395 a 0.824,0.824 0 0 1 0.766,-0.766 h 57.867 a 2.472,2.472 0 0 0 2.299,-2.3 v -2.3 c 0,-26.825 -16.862,-45.22 -41.388,-45.22 z m -57.1,-14.563 a 61.35,61.35 0 0 0 -41.389004,-13.796 c -26.059,0 -42.154,15.329 -42.154,33.724 0,41.771 63.615,28.358 63.615,47.903 0,6.131 -6.132,12.263 -19.161,12.263 a 48.156,48.156 0 0 1 -33.34,-13.03 2.56,2.56 0 0 0 -3.833,0.383 l -9.963,13.796 a 2.372,2.372 0 0 0 0.384,3.066 c 10.347,9.58 24.91,16.096 45.22,16.096 29.891004,0 44.454004,-15.33 45.220004,-35.257 0,-41.388 -63.615004,-29.508 -63.615004,-47.136 0,-6.515 5.749,-11.114 15.712,-11.114 a 47.562,47.562 0 0 1 30.275,10.347 2.426,2.426 0 0 0 3.449004,-0.383 l 9.964,-13.413 a 2.426,2.426 0 0 0 -0.383,-3.449 z m 57.483,31.424 c 10.423,-0.583 19.422,7.227 20.311,17.629 a 0.824,0.824 0 0 1 -0.766,0.766 h -39.09 a 0.824,0.824 0 0 1 -0.766,-0.766 c 1.282,-10.198 10.035,-17.795 20.311,-17.629 z"
     id="path511" />
</svg>
